<svg width="75" height="70" viewBox="0 0 75 70" fill="none" xmlns="http://www.w3.org/2000/svg">
<path d="M35.2279 0L24.8099 10.418L35.2279 20.836L45.6458 10.418L35.2279 0Z" fill="#071330"/>
<path d="M23.0729 12.1558L12.6549 22.5737L23.0729 32.9917L33.4909 22.5737L23.0729 12.1558Z" fill="#071330"/>
<path d="M24.8107 34.7285L35.2286 24.3105L45.6466 34.7285L35.2286 45.1465L24.8107 34.7285Z" fill="#071330"/>
<path d="M10.918 24.3115L0.5 34.7295L10.918 45.1475L21.336 34.7295L10.918 24.3115Z" fill="#071330"/>
<path d="M12.6558 46.8848L23.0737 36.4668L33.4917 46.8848L23.0737 57.3027L12.6558 46.8848Z" fill="#071330"/>
<path d="M35.2296 48.6216L24.8116 59.0396L35.2296 69.4575L45.6475 59.0396L35.2296 48.6216Z" fill="#071330"/>
<path d="M59.2723 33.1314L70.2761 28.9074L74.5 39.9112L63.4963 44.1351L59.2723 33.1314Z" fill="#071330"/>
<path d="M51.5946 36.7977L40.4739 44.0195L47.6957 55.1402L58.8165 47.9184L51.5946 36.7977Z" fill="#071330"/>
<path d="M40.4609 19.9248L51.5992 12.7645L58.7596 23.9028L47.6212 31.0631L40.4609 19.9248Z" fill="#071330"/>
</svg>
